<?xml version="1.0" standalone="no"?>
<!DOCTYPE svg PUBLIC "-//W3C//DTD SVG 20010904//EN"
 "http://www.w3.org/TR/2001/REC-SVG-20010904/DTD/svg10.dtd">
<svg version="1.0" xmlns="http://www.w3.org/2000/svg"
 width="42.000000pt" height="40.000000pt" viewBox="0 0 42.000000 40.000000"
 preserveAspectRatio="xMidYMid meet">

<g transform="translate(0.000000,40.000000) scale(0.100000,-0.100000)"
fill="#000000" stroke="none">
<path d="M110 295 l-95 -95 98 -97 97 -98 42 42 c36 36 40 44 28 58 -12 14
-16 13 -42 -12 l-29 -27 -67 67 -67 67 68 67 67 68 67 -67 67 -67 -27 -29
c-25 -26 -26 -30 -12 -42 14 -12 22 -8 58 28 l42 42 -95 95 c-52 52 -97 95
-100 95 -3 0 -48 -43 -100 -95z"/>
<path d="M165 240 l-39 -40 41 -42 c36 -36 44 -40 58 -28 14 12 13 16 -12 42
-21 22 -24 31 -15 40 9 9 18 6 40 -15 26 -25 30 -26 42 -12 11 14 8 22 -25 55
-22 22 -42 40 -45 40 -3 0 -24 -18 -45 -40z"/>
</g>
</svg>
